<svg xmlns="http://www.w3.org/2000/svg" width="23.865" height="23.921" viewBox="0 0 23.865 23.921"><defs><style>.a{fill:#fcfcfc;stroke:#0f0d0d;fill-rule:evenodd;}</style></defs><path class="a" d="M-939.741-7453.127l8.212,8.332a1.85,1.85,0,0,1,0,2.59,1.781,1.781,0,0,1-2.553,0l-8.213-8.334-8.213,8.334a1.781,1.781,0,0,1-2.553,0,1.85,1.85,0,0,1,0-2.59l8.213-8.332-8.213-8.334a1.853,1.853,0,0,1,0-2.592,1.791,1.791,0,0,1,2.553,0l8.213,8.334,8.213-8.334a1.791,1.791,0,0,1,2.553,0,1.852,1.852,0,0,1,0,2.592Z" transform="translate(954.227 7465.087)"/></svg>