<?xml version="1.0" encoding="iso-8859-1"?>
<!DOCTYPE svg PUBLIC "-//W3C//DTD SVG 1.1//EN" "http://www.w3.org/Graphics/SVG/1.1/DTD/svg11.dtd">
<svg 
 version="1.1" xmlns="http://www.w3.org/2000/svg" xmlns:xlink="http://www.w3.org/1999/xlink" x="0px" y="0px" width="512px"
	 height="512px" viewBox="0 0 512 512" style="enable-background:new 0 0 512 512;" xml:space="preserve"
><g id="afcae5a789ccd549f9c6e2a2f8104bef"><g></g><path style="display: inline; fill:#eff1f8;" d="M229.406,209.94L149.554,71.631C180.876,53.508,217.209,43.083,256,43.083
		c39.972,0,77.356,11.041,109.312,30.199l-79.886,138.375c-8.434-5.605-18.539-8.887-29.426-8.887
		C246.302,202.771,237.237,205.408,229.406,209.94z M202.771,256H43.083c0,79.395,43.489,148.585,107.905,185.195l79.844-138.292
		C214.132,293.926,202.771,276.294,202.771,256z M309.229,256c0,19.109-10.097,35.817-25.218,45.203l79.868,138.343
		C426.72,402.526,468.917,334.21,468.917,256H309.229z M256,220.515c-19.604,0-35.489,15.887-35.489,35.485
		c0,19.604,15.885,35.488,35.489,35.488c19.599,0,35.484-15.884,35.484-35.488C291.484,236.401,275.599,220.515,256,220.515z
		 M256,21.792C126.857,21.792,21.792,126.857,21.792,256c0,129.144,105.065,234.208,234.208,234.208
		c129.144,0,234.208-105.064,234.208-234.208C490.208,126.857,385.144,21.792,256,21.792 M256,0.5
		c141.106,0,255.5,114.393,255.5,255.5c0,141.106-114.394,255.5-255.5,255.5C114.893,511.5,0.5,397.106,0.5,256
		C0.5,114.893,114.893,0.5,256,0.5L256,0.5z"></path></g></svg>